<?xml version="1.0" standalone="no"?>
<!DOCTYPE svg PUBLIC "-//W3C//DTD SVG 20010904//EN"
 "http://www.w3.org/TR/2001/REC-SVG-20010904/DTD/svg10.dtd">
<svg version="1.0" xmlns="http://www.w3.org/2000/svg"
 width="360.000000pt" height="360.000000pt" viewBox="0 0 360.000000 360.000000"
 preserveAspectRatio="xMidYMid meet">

<g transform="translate(0.000000,360.000000) scale(0.100000,-0.100000)"
fill="#000000" stroke="none">
<path d="M1599 3581 c-244 -30 -397 -76 -605 -181 -362 -183 -640 -467 -815
-835 -119 -250 -169 -477 -169 -760 0 -293 49 -515 170 -772 372 -787 1257
-1193 2095 -962 505 139 927 495 1148 969 116 247 167 478 167 755 0 305 -57
548 -191 813 -93 184 -179 302 -334 457 -155 155 -273 241 -457 334 -207 104
-361 151 -583 177 -203 23 -269 24 -426 5z m1245 -733 c14 -52 18 -208 7 -293
-29 -223 -146 -555 -227 -644 -41 -46 -92 -77 -104 -64 -4 4 -40 106 -80 226
-39 119 -76 217 -80 217 -5 0 -12 -21 -16 -47 -12 -83 -52 -198 -92 -259 -38
-58 -103 -124 -123 -124 -12 0 -116 216 -153 318 -58 161 -70 228 -71 384 0
80 4 150 8 154 12 12 74 -25 109 -65 40 -46 72 -116 99 -218 12 -46 27 -82 32
-80 5 1 20 40 33 85 31 106 80 207 117 238 78 66 153 -1 227 -204 12 -34 24
-61 26 -59 2 2 18 50 35 108 52 175 123 291 204 333 39 21 42 20 49 -6z
m-1716 -223 c40 -124 77 -225 82 -225 5 0 14 19 20 43 62 246 123 357 196 357
49 0 85 -52 140 -199 83 -227 97 -294 98 -473 1 -100 -3 -161 -10 -168 -18
-18 -97 61 -137 137 -19 37 -48 110 -63 161 -15 50 -31 92 -34 92 -4 0 -17
-41 -29 -91 -39 -169 -104 -269 -175 -269 -65 0 -118 72 -162 220 -12 41 -26
76 -31 77 -5 2 -15 -27 -22 -64 -17 -93 -68 -226 -115 -296 -37 -56 -121 -131
-136 -122 -17 11 -33 129 -32 240 2 286 108 602 249 742 34 35 68 63 75 63 8
-1 42 -91 86 -225z m1977 -1039 c26 -19 32 -108 10 -182 -51 -178 -174 -374
-329 -530 -199 -199 -414 -315 -699 -376 -144 -30 -380 -30 -524 0 -424 91
-769 352 -968 734 -49 94 -125 297 -125 333 0 12 15 15 73 15 124 -1 183 -43
253 -183 131 -262 363 -488 601 -587 151 -63 210 -74 408 -74 166 0 188 2 280
28 283 78 536 264 677 499 l38 62 -43 7 c-23 3 -64 7 -90 7 -62 1 -100 35 -95
84 3 31 7 33 123 80 208 84 366 116 410 83z"/>
</g>
</svg>
